<svg xmlns="http://www.w3.org/2000/svg" width="63" height="54">
    <path fill-rule="evenodd" fill="#FFC222" d="M61.979 54H38.031c-.563 0-1.02-.458-1.02-1.023v-2.182a3.204 3.204 0 0 1 3.197-3.204h1.157v-1.159a3.205 3.205 0 0 1 3.198-3.205h10.885a3.206 3.206 0 0 1 3.198 3.205v1.159h1.156A3.205 3.205 0 0 1 63 50.795v2.182c0 .565-.457 1.023-1.021 1.023zm-5.374-7.568a1.16 1.16 0 0 0-1.157-1.159H44.563a1.16 1.16 0 0 0-1.157 1.159v1.159h13.199v-1.159zm4.354 4.363a1.16 1.16 0 0 0-1.157-1.159H40.208a1.16 1.16 0 0 0-1.156 1.159v1.159h21.907v-1.159zM43.526 30.153a3.174 3.174 0 0 1-2.261.938 3.174 3.174 0 0 1-2.261-.938 3.213 3.213 0 0 1 0-4.532l.048-.048-2.367-2.371a2.1 2.1 0 0 1-2.074-.537l-.274-.274-2.116 2.12a3.182 3.182 0 0 1-2.261.937c-.068 0-.135-.005-.203-.009L5.459 49.789a3.178 3.178 0 0 1-2.261.938 3.175 3.175 0 0 1-2.261-.938A3.189 3.189 0 0 1 0 47.523c0-.856.333-1.661.937-2.266l24.298-24.35a3.2 3.2 0 0 1 .925-2.47l2.116-2.12-.274-.274a2.103 2.103 0 0 1-.617-1.495c0-.2.029-.397.082-.584l-2.366-2.372-.048.048a3.187 3.187 0 0 1-2.262.938 3.182 3.182 0 0 1-2.261-.938 3.182 3.182 0 0 1-.936-2.265c0-.856.332-1.661.936-2.266L26.688.938A3.174 3.174 0 0 1 28.949 0c.854 0 1.657.333 2.261.938.604.605.937 1.41.937 2.266 0 .856-.333 1.661-.937 2.266l-.048.048 2.367 2.372a2.107 2.107 0 0 1 2.074.536l6.609 6.622a2.12 2.12 0 0 1 .534 2.079l2.367 2.372.049-.049a3.17 3.17 0 0 1 2.261-.938c.854 0 1.657.333 2.261.938a3.19 3.19 0 0 1 .936 2.266c0 .856-.332 1.661-.936 2.266l-6.158 6.171zM26.16 22.969l-.046-.051L2.38 46.703c-.219.219-.339.51-.339.82 0 .309.12.6.339.819.218.219.509.34.818.34.309 0 .599-.121.817-.34L27.75 24.557c-.017-.015-.035-.029-.051-.046l-1.539-1.542zm1.443-3.086a1.163 1.163 0 0 0 0 1.64l1.54 1.542a1.155 1.155 0 0 0 1.635 0l2.116-2.12-3.175-3.182-2.116 2.12zm2.164-17.499a1.146 1.146 0 0 0-.818-.339c-.309 0-.599.12-.818.339l-6.157 6.171a1.162 1.162 0 0 0 0 1.639 1.155 1.155 0 0 0 1.635 0l6.158-6.171a1.162 1.162 0 0 0 0-1.639zm-.048 4.58-3.175 3.182 2.18 2.185 3.175-3.182-2.18-2.185zm11.05 9.53L34.16 9.872a.07.07 0 0 0-.048-.02.07.07 0 0 0-.048.02L29.445 14.5a.065.065 0 0 0-.019.048c0 .029.014.044.019.048l6.609 6.623c.005.005.02.02.048.02a.065.065 0 0 0 .048-.02l4.619-4.628a.07.07 0 0 0 0-.097zm.721 2.267-3.175 3.181 2.18 2.185 3.175-3.182-2.18-2.184zm6.75 2.136a1.15 1.15 0 0 0-.817-.339 1.15 1.15 0 0 0-.818.339l-6.158 6.171a1.16 1.16 0 0 0 0 1.638 1.155 1.155 0 0 0 1.636 0l6.157-6.17c.219-.219.339-.51.339-.82 0-.309-.12-.6-.339-.819z"/>
</svg>
