<svg xmlns="http://www.w3.org/2000/svg" width="57" height="54">
    <path fill-rule="evenodd" fill="#FFC222" d="M52.076 25.513v-1.046h2.031c.51 0 .923-.413.923-.923V20.53h1.047c.51 0 .923-.413.923-.923v-2.953a.926.926 0 0 0-.465-.802L28.958.102a.924.924 0 0 0-.916 0L.465 15.852a.923.923 0 0 0-.465.802v2.953c0 .51.413.923.923.923H1.97v3.014c0 .51.413.923.923.923h2.031v1.046c0 .717.399 1.343.985 1.668v17.097H2.893a.924.924 0 0 0-.923.924v3.014H.923a.923.923 0 0 0-.923.923v3.938c0 .509.413.923.923.923h55.154c.51 0 .923-.414.923-.923v-3.938a.923.923 0 0 0-.923-.923H55.03v-3.014a.924.924 0 0 0-.923-.924h-3.016V27.181c.586-.325.985-.951.985-1.668zm-1.847 0a.062.062 0 0 1-.062.062h-3.939a.062.062 0 0 1-.062-.062v-1.046h4.063v1.046zm-8.987 18.765V27.181c.586-.325.985-.951.985-1.668v-1.046h2.093v1.046c0 .717.398 1.343.985 1.668v17.097h-4.063zm-3.94 0V27.42h2.093v16.858h-2.093zm-5.909 0V27.181c.587-.325.985-.951.985-1.668v-1.046h2.093v1.046c0 .717.398 1.343.985 1.668v17.097h-4.063zm-3.94 0V27.42h2.093v16.858h-2.093zm-5.909 0V27.181c.587-.325.985-.951.985-1.668v-1.046h2.093v1.046c0 .717.398 1.343.985 1.668v17.097h-4.063zm-3.939 0V27.42h2.093v16.858h-2.093zm-5.91 0V27.181c.587-.325.985-.951.985-1.668v-1.046h2.093v1.046c0 .717.398 1.343.985 1.668v17.097h-4.063zm8.987-19.811v1.046a.061.061 0 0 1-.061.062h-3.94a.061.061 0 0 1-.061-.062v-1.046h4.062zm9.849 0v1.046a.061.061 0 0 1-.061.062h-3.94a.061.061 0 0 1-.061-.062v-1.046h4.062zm9.849 0v1.046a.062.062 0 0 1-.061.062h-3.94a.062.062 0 0 1-.062-.062v-1.046h4.063zM1.847 17.189 28.5 1.966l26.653 15.223v1.495H1.847v-1.495zm1.969 3.341h49.368v2.092H3.816V20.53zm7.018 3.937v1.046a.062.062 0 0 1-.062.062H6.833a.062.062 0 0 1-.062-.062v-1.046h4.063zM7.756 27.42h2.093v16.858H7.756V27.42zm47.397 24.734H1.847v-2.092h53.306v2.092zm-1.969-3.938H3.816v-2.092h49.368v2.092zm-6.033-3.938V27.42h2.093v16.858h-2.093z"/>
</svg>
