<svg xmlns="http://www.w3.org/2000/svg" width="47" height="44">
    <path fill-rule="evenodd" fill="#FFC222" d="M42.99 8.321H31.57V5.93a2.42 2.42 0 0 0 1.483-1.487c.446-1.268-.198-2.671-1.436-3.128C29.286.455 26.479 0 23.5 0c-2.979 0-5.786.455-8.117 1.315-1.238.457-1.882 1.86-1.436 3.129A2.41 2.41 0 0 0 15.43 5.93v2.391H4.01C1.799 8.321 0 10.165 0 12.43v27.461C0 42.156 1.799 44 4.01 44h38.98c2.211 0 4.01-1.844 4.01-4.109V12.43c0-2.265-1.799-4.109-4.01-4.109zM15.899 2.783c2.167-.8 4.795-1.223 7.601-1.223 2.805 0 5.434.423 7.601 1.223a.891.891 0 0 1 .52 1.131.867.867 0 0 1-.812.586.843.843 0 0 1-.293-.053c-1.953-.722-4.445-1.119-7.016-1.119-2.571 0-5.063.397-7.017 1.119a.858.858 0 0 1-1.104-.532.892.892 0 0 1 .52-1.132zm1.053 3.148L17 5.915c1.792-.662 4.1-1.027 6.5-1.027 2.399 0 4.708.365 6.5 1.027l.047.015v2.391H16.952v-2.39zM1.523 12.43c0-1.405 1.115-2.548 2.487-2.548h38.98c1.371 0 2.487 1.143 2.487 2.548v7.489c0 5.076-4.03 9.206-8.984 9.206h-9.796v-.884c0-1.348-1.07-2.445-2.385-2.445h-1.624c-1.316 0-2.386 1.097-2.386 2.445v.884h-9.796c-4.953 0-8.983-4.13-8.983-9.206V12.43zm23.652 17.475a.874.874 0 0 1-.863.884h-1.624a.874.874 0 0 1-.863-.884v-1.664c0-.488.387-.884.863-.884h1.624c.476 0 .863.396.863.884v1.664zm-3.35 2.279c.268.106.559.165.863.165h1.624c.304 0 .595-.059.863-.165v1.05a.875.875 0 0 1-.863.884h-1.624a.875.875 0 0 1-.863-.884v-1.05zm23.652 7.707c0 1.405-1.116 2.548-2.487 2.548H4.01c-1.372 0-2.487-1.143-2.487-2.548V25.497c1.844 3.108 5.181 5.188 8.983 5.188h9.796v2.549c0 1.347 1.07 2.444 2.386 2.444h1.624c1.315 0 2.385-1.097 2.385-2.444v-2.549h9.796c3.803 0 7.14-2.08 8.984-5.188v14.394z"/>
</svg>
